<?xml version="1.0" encoding="UTF-8" standalone="no"?>
<!-- Created with Inkscape (http://www.inkscape.org/) -->

<svg
   width="135.58891mm"
   height="136.00706mm"
   viewBox="0 0 135.58891 136.00706"
   version="1.1"
   id="svg1"
   xml:space="preserve"
   xmlns="http://www.w3.org/2000/svg"
   xmlns:svg="http://www.w3.org/2000/svg"><defs
     id="defs1" /><g
     id="layer1"
     transform="translate(-36.548104,-143.53738)"><g
       id="g5"><path
         id="path1"
         style="display:inline;fill:#000000;fill-opacity:1;stroke-width:0.264583"
         d="m 123.31857,160.8031 c -9.05217,0.25772 -18.8804,5.97667 -22.90713,11.14299 l -51.977704,52.10897 c -14.39872,12.25251 -13.996682,27.12548 -7.830013,33.98965 l 6.254916,6.96237 8.465633,8.3969 c 11.7552,11.65882 27.006758,5.11327 36.817907,-6.29677 L 145.30121,214.2107 c 10.49533,-11.08706 11.55522,-29.55227 4.88601,-35.83606 l -7.37992,-6.95358 -8.24342,-7.01921 c -3.17618,-2.70458 -7.13068,-3.71589 -11.24531,-3.59875 z m -32.00374,34.13021 c 1.550333,-0.0718 3.075641,0.21025 4.575948,0.84542 1.508348,0.62698 2.951138,1.61578 4.328422,2.96675 1.86916,1.83346 3.09816,3.78692 3.6866,5.8601 0.60467,2.07303 0.56346,4.1481 -0.12299,6.22546 -0.67842,2.06917 -1.94196,4.04638 -3.791507,5.93194 -1.367055,1.39368 -2.798398,2.47565 -4.293278,3.24528 -1.494881,0.76963 -3.029396,1.20224 -4.603854,1.29863 -1.574457,0.0964 -3.127911,-0.17284 -4.660697,-0.8077 -1.532786,-0.63487 -3.008333,-1.64791 -4.426603,-3.03909 -1.410073,-1.38314 -2.451699,-2.84693 -3.124357,-4.39147 -0.664618,-1.55273 -0.963784,-3.10866 -0.89762,-4.66845 0.06616,-1.55978 0.477451,-3.11086 1.234033,-4.65294 0.76478,-1.53404 1.810946,-2.97728 3.137793,-4.32997 1.359013,-1.38548 2.802092,-2.46345 4.329452,-3.23339 1.535557,-0.7619 3.078325,-1.17878 4.628658,-1.25057 z m 1.566312,4.74389 c -0.236055,-0.005 -0.474847,0.002 -0.716235,0.0227 -0.957353,0.0904 -1.969502,0.4173 -3.03599,0.97979 -1.050249,0.56232 -2.073985,1.35176 -3.071131,2.36833 -1.005187,1.02476 -1.786509,2.07548 -2.344559,3.15278 -0.549852,1.08533 -0.860755,2.1317 -0.932243,3.13934 -0.05525,1.00748 0.08762,1.94404 0.428914,2.80965 0.349488,0.87365 0.889392,1.66865 1.619023,2.38435 0.934583,0.91673 2.020498,1.52339 3.257682,1.82004 1.245382,0.30469 2.575973,0.19452 3.992004,-0.33073 1.42423,-0.51721 2.835664,-1.48911 4.234884,-2.91558 1.294681,-1.3199 2.203336,-2.67262 2.725932,-4.05815 0.522595,-1.38554 0.627952,-2.71441 0.315226,-3.98632 -0.296486,-1.27207 -0.957546,-2.41063 -1.982308,-3.41582 -0.72963,-0.71569 -1.542661,-1.23957 -2.439127,-1.57199 -0.66017,-0.24943 -1.343907,-0.38242 -2.052072,-0.39843 z m 13.561968,18.72392 c 0.99881,-0.002 2.03243,0.22439 3.10058,0.67697 1.0844,0.45241 2.14728,1.18893 3.18844,2.2102 1.25431,1.23035 2.13093,2.4768 2.63033,3.73879 0.31654,0.82524 0.46696,1.68044 0.45114,2.56573 -0.0158,0.88529 -0.20233,1.74758 -0.55966,2.58744 -0.34109,0.83971 -0.82923,1.58374 -1.46451,2.23139 -0.99715,1.01656 -2.16016,1.69377 -3.48868,2.0314 -1.31227,0.33748 -2.464,0.48617 -3.45508,0.447 -0.98305,-0.0474 -2.58768,-0.17392 -4.8147,-0.37982 -2.218817,-0.19786 -3.831514,-0.24306 -4.837429,-0.13591 -0.413875,0.0283 -0.87595,0.0978 -1.386479,0.20826 l 6.419248,6.29677 c 0.63945,0.62724 0.99814,1.23679 1.07694,1.82883 0.0788,0.59204 -0.10291,1.11335 -0.54519,1.56424 -0.39403,0.40171 -0.86268,0.60934 -1.40663,0.6227 -0.53575,0.0214 -1.07434,-0.23355 -1.615409,-0.76429 l -9.05061,-8.87749 c -0.614857,-0.60312 -0.92951,-1.24179 -0.944129,-1.91565 -0.0066,-0.68206 0.215269,-1.25243 0.665593,-1.71152 0.289494,-0.29513 0.782149,-0.57628 1.477946,-0.84285 0.703838,-0.27476 1.323568,-0.42249 1.859318,-0.4439 2.200073,-0.0618 4.132833,-0.0643 5.798095,-0.007 1.673306,0.0488 2.823006,0.13073 3.449406,0.2465 1.13865,0.18391 2.16254,0.2557 3.07165,0.21445 0.92534,-0.0414 1.74798,-0.19998 2.46806,-0.4749 0.73632,-0.27508 1.34198,-0.65423 1.81643,-1.13792 0.51466,-0.52468 0.8458,-1.11641 0.99374,-1.7756 0.16417,-0.65935 0.14164,-1.31726 -0.0677,-1.97301 -0.20114,-0.6477 -0.55573,-1.2207 -1.06402,-1.71927 -1.07395,-1.05344 -2.38106,-1.41041 -3.92069,-1.07074 -0.2026,0.0426 -0.67161,0.24214 -1.40715,0.59842 -0.72733,0.36431 -1.3585,0.57346 -1.89394,0.62735 -0.52724,0.0619 -1.02461,-0.13643 -1.4919,-0.5948 -0.4099,-0.40207 -0.61753,-0.87124 -0.6227,-1.40715 -0.005,-0.5359 0.22118,-1.03752 0.67955,-1.50482 0.55486,-0.56566 1.26096,-1.03124 2.11821,-1.39681 0.85726,-0.36557 1.78131,-0.5532 2.77193,-0.56276 z" /><path
         style="fill:#000000;fill-opacity:1;stroke-width:0.264583"
         d="m 133.88183,167.35229 c 4.35925,-5.91216 9.81707,-7.55936 15.22578,-1.57509 9.85276,9.56882 0.93384,12.16649 -2.62513,15.35704 z"
         id="path2" /><path
         id="path3"
         style="display:inline;fill:#000000;fill-opacity:1;stroke-width:0.264583"
         d="m 157.0979,143.54576 c -1.83917,0.0751 -3.54723,0.65334 -5.1356,1.68982 -3.26627,2.2843 -4.22146,5.30402 -1.71772,9.42423 -1.08263,3.3376 0.16421,4.34578 0.89762,5.86734 l -4.3646,4.00338 c 1.20281,1.26461 4.53106,4.7353 5.5237,5.76347 1.39844,1.4485 2.29436,1.52381 3.59874,2.86649 -2.23686,2.04154 -1.5656,3.39435 -0.52503,4.65966 2.30309,1.83029 4.15959,-0.44907 6.03788,-2.52697 5.02722,-4.28259 3.28007,-5.22678 2.52697,-6.6611 -1.93543,-0.9314 -3.1562,-0.30342 -4.13463,0.85318 l -4.92218,-4.88962 0.51883,-0.28526 c 0.52366,0.97832 1.67705,1.11744 2.697,1.43403 1.07056,0.3582 2.68492,-0.62721 2.88147,-0.36742 1.51729,2.00547 7.89534,1.93775 8.99687,-1.30587 3.17296,-4.02023 2.31288,-7.66737 0.82062,-11.25564 l -7.77678,-7.94112 c -2.1133,-0.97576 -4.08398,-1.40366 -5.92316,-1.3286 z m -0.44533,4.79629 c 1.02022,-0.0484 2.18093,0.21259 2.8457,0.85401 2.4444,2.35854 5.49572,4.53225 7.23936,7.19284 2.23932,3.41694 -1.34098,5.45032 -2.59881,4.64055 -2.72032,-1.7513 -2.93732,-2.11837 -4.68705,-0.8816 l -3.99097,-4.223 c 1.65053,-2.54455 -2.31903,-3.24673 -1.39217,-5.61516 0.46343,-1.18422 1.56372,-1.91923 2.58394,-1.96764 z" /></g></g></svg>
